<svg id="logo" width="162" height="41" viewBox="0 0 162 41" fill="none" xmlns="http://www.w3.org/2000/svg">
<path d="M11.3826 20.944C12.3639 21.6907 13.8146 22.064 15.7346 22.064H15.8626C17.0573 19.8453 18.1986 17.7973 19.2866 15.92C16.0226 17.84 13.3879 19.5147 11.3826 20.944ZM30.2626 5.808C30.2626 5.08267 29.7719 4.656 28.7906 4.528C26.9346 6.68267 24.8866 9.52 22.6466 13.04C25.1426 11.5467 27.0306 10.2347 28.3106 9.104C29.6119 7.97334 30.2626 6.87467 30.2626 5.808ZM14.9346 9.648C13.4626 10.9707 12.2679 12.3893 11.3506 13.904C10.4546 15.3973 10.0066 16.688 10.0066 17.776C10.0066 18.864 10.2519 19.7173 10.7426 20.336C12.7479 18.928 15.8519 17.008 20.0546 14.576C22.6146 10.1813 24.9293 6.832 26.9986 4.528C24.7586 4.67734 22.5613 5.232 20.4066 6.192C18.2519 7.152 16.4279 8.304 14.9346 9.648ZM15.5106 22.704H14.8386C12.9613 22.704 11.4466 22.3733 10.2946 21.712C4.83327 25.744 2.10261 29.7013 2.10261 33.584C2.10261 35.9733 2.93461 37.168 4.59861 37.168C5.38794 37.168 6.18794 36.7627 6.99861 35.952C7.46794 35.504 7.88394 35.0773 8.24661 34.672C8.63061 34.2667 9.08927 33.648 9.62261 32.816C10.1773 31.984 10.6253 31.28 10.9666 30.704C11.3293 30.1493 11.8306 29.3067 12.4706 28.176C13.1106 27.0667 13.5906 26.2027 13.9106 25.584C14.2519 24.9653 14.7853 24.0053 15.5106 22.704ZM31.0306 5.744C31.0093 7.00267 30.2199 8.304 28.6626 9.648C27.1053 10.992 24.8119 12.5813 21.7826 14.416C20.1186 17.104 18.6146 19.6213 17.2706 21.968C19.3399 21.648 21.0893 20.8907 22.5186 19.696C22.6039 19.632 22.6999 19.6 22.8066 19.6C22.9133 19.6 22.9666 19.664 22.9666 19.792C22.9666 19.8987 22.7319 20.1333 22.2626 20.496C21.7933 20.8373 21.0573 21.2213 20.0546 21.648C19.0733 22.0747 18.0386 22.3733 16.9506 22.544C13.5586 28.304 11.2226 31.9947 9.94261 33.616C8.21461 35.8133 6.82794 37.2 5.78261 37.776C5.14261 38.1173 4.52394 38.288 3.92661 38.288C3.00927 38.288 2.29461 37.8827 1.78261 37.072C1.24927 36.2613 0.982605 35.344 0.982605 34.32C0.982605 29.84 3.85194 25.456 9.59061 21.168C8.75861 20.4213 8.34261 19.408 8.34261 18.128C8.34261 16.8267 8.83327 15.3867 9.81461 13.808C10.8173 12.208 12.1399 10.704 13.7826 9.296C15.4466 7.888 17.4946 6.68267 19.9266 5.68C22.3799 4.67734 24.9079 4.10134 27.5106 3.952C28.5133 2.90667 29.3879 2.10667 30.1346 1.552C30.3906 1.38134 30.7106 1.296 31.0946 1.296C31.4999 1.296 31.7026 1.40267 31.7026 1.616C31.7026 1.72267 31.5533 1.88267 31.2546 2.096C30.9559 2.30934 30.7319 2.48 30.5826 2.608L29.2706 3.984C29.7613 4.09067 30.1773 4.31467 30.5186 4.656C30.8599 4.99734 31.0306 5.36 31.0306 5.744Z" fill="black"/>
<path d="M26.5324 23.248C27.727 23.248 29.1564 22.576 30.8204 21.232L31.3644 21.392C29.2737 23.1413 27.471 24.016 25.9564 24.016C25.7857 24.016 25.6577 24.0053 25.5724 23.984C24.9964 24.688 24.367 25.264 23.6844 25.712C23.0017 26.1387 22.4044 26.352 21.8924 26.352C21.0817 26.352 20.6764 25.904 20.6764 25.008C20.6764 24.0907 21.4337 22.8747 22.9484 21.36C22.6924 20.7413 22.5644 20.0907 22.5644 19.408C22.5644 18.7253 22.8097 18.1707 23.3004 17.744C23.791 17.3173 24.3564 17.104 24.9964 17.104C25.6577 17.104 26.2124 17.3173 26.6604 17.744C27.1084 18.1707 27.3324 18.7787 27.3324 19.568C27.3324 20.784 26.9377 22 26.1484 23.216C26.2337 23.2373 26.3617 23.248 26.5324 23.248ZM25.5084 22.928C26.1697 21.8187 26.5004 20.88 26.5004 20.112C26.5004 19.3227 26.3084 18.7467 25.9244 18.384C25.5404 18 25.167 17.808 24.8044 17.808C24.0577 17.808 23.6844 18.192 23.6844 18.96C23.6844 19.728 23.855 20.496 24.1964 21.264C24.5377 22.0107 24.975 22.5653 25.5084 22.928ZM21.9884 24.816C21.9884 25.2427 22.2657 25.456 22.8204 25.456C23.375 25.456 24.079 24.8907 24.9324 23.76C24.3564 23.4613 23.8444 22.9387 23.3964 22.192C22.4577 23.216 21.9884 24.0907 21.9884 24.816Z" fill="black"/>
<path d="M44.4666 20.784C39.9653 24.5387 37.1813 26.416 36.1146 26.416C35.4959 26.416 35.1866 26.16 35.1866 25.648C35.1866 25.136 35.4106 24.528 35.8586 23.824C36.3279 23.12 36.7866 22.5013 37.2346 21.968C37.7039 21.4133 37.9386 21.0827 37.9386 20.976C37.9386 20.8693 37.9066 20.816 37.8426 20.816C35.8586 22.1387 34.6746 22.9493 34.2906 23.248C33.9279 23.5467 33.3199 24.0373 32.4666 24.72C31.6346 25.4027 31.0906 25.8293 30.8346 26C30.5786 26.1707 30.3013 26.256 30.0026 26.256C29.7039 26.256 29.5546 26.128 29.5546 25.872C29.5546 25.5733 30.1519 24.6347 31.3466 23.056C32.4986 21.4773 33.0746 20.592 33.0746 20.4C33.0746 20.3573 33.0319 20.336 32.9466 20.336C32.8826 20.336 31.9653 20.9867 30.1946 22.288L30.0666 21.808C31.5813 20.592 32.6053 19.8133 33.1386 19.472C33.6719 19.1307 34.0986 18.96 34.4186 18.96C34.7599 18.96 34.9306 19.12 34.9306 19.44C34.9306 19.6533 34.3226 20.528 33.1066 22.064C31.9119 23.5787 31.3146 24.4 31.3146 24.528C31.3146 24.6347 31.3466 24.688 31.4106 24.688C31.4959 24.688 32.7119 23.8347 35.0586 22.128C37.4266 20.4 38.8666 19.536 39.3786 19.536C39.5279 19.536 39.6666 19.6 39.7946 19.728C39.9439 19.8347 40.0186 19.9413 40.0186 20.048C40.0186 20.304 39.4533 21.1573 38.3226 22.608C37.1919 24.0373 36.6266 24.848 36.6266 25.04C36.6266 25.232 36.7546 25.328 37.0106 25.328C37.2879 25.328 37.8639 25.04 38.7386 24.464C40.3386 23.4187 41.8106 22.3413 43.1546 21.232L43.8586 20.656C44.0079 20.5493 44.1466 20.496 44.2746 20.496C44.4026 20.496 44.4666 20.56 44.4666 20.688V20.784Z" fill="black"/>
<path d="M47.1144 22.16C46.9864 22.16 46.9224 22.1173 46.9224 22.032C46.9224 21.9253 46.997 21.808 47.1464 21.68C47.8504 21.104 48.2024 20.5813 48.2024 20.112C48.2024 19.8133 47.9357 19.6427 47.4024 19.6C46.4424 19.6213 45.2904 20.3147 43.9464 21.68C42.6237 23.0453 41.9624 24.0693 41.9624 24.752C41.9624 24.9867 42.0904 25.104 42.3464 25.104C42.6237 25.104 42.9864 24.9227 43.4344 24.56C43.8397 24.304 44.597 23.664 45.7064 22.64C45.9624 22.384 46.2077 22.256 46.4424 22.256C46.741 22.256 46.8904 22.3947 46.8904 22.672C46.8904 22.7787 46.8584 22.864 46.7944 22.928C46.7304 22.992 46.613 23.1307 46.4424 23.344C46.2717 23.536 46.1224 23.7173 45.9944 23.888C45.6104 24.4427 45.4184 24.8053 45.4184 24.976C45.4184 25.4027 45.589 25.616 45.9304 25.616C46.3784 25.616 47.221 25.2107 48.4584 24.4C49.6957 23.568 50.8264 22.736 51.8504 21.904L53.3864 20.688C53.5357 20.5813 53.6744 20.528 53.8024 20.528C53.9304 20.528 53.9944 20.6027 53.9944 20.752V20.816C52.3517 22.2027 50.613 23.504 48.7784 24.72C46.965 25.936 45.7704 26.544 45.1944 26.544C44.5117 26.544 44.1704 26.1813 44.1704 25.456C44.1704 25.2853 44.2024 25.1253 44.2664 24.976C44.3304 24.8267 44.3624 24.72 44.3624 24.656C44.3624 24.592 44.341 24.5493 44.2984 24.528C44.2344 24.528 43.8184 24.816 43.0504 25.392C42.3037 25.968 41.6424 26.256 41.0664 26.256C40.5117 26.256 40.2344 25.9573 40.2344 25.36C40.2344 24.7627 40.629 23.9627 41.4184 22.96C42.229 21.936 43.3064 21.008 44.6504 20.176C45.9944 19.344 47.3064 18.928 48.5864 18.928C48.885 18.928 49.1304 19.0027 49.3224 19.152C49.5357 19.3013 49.6424 19.536 49.6424 19.856C49.6424 20.1547 49.333 20.6133 48.7144 21.232C48.0957 21.8507 47.5624 22.16 47.1144 22.16ZM52.7784 15.888C52.7784 16.2507 52.3517 16.656 51.4984 17.104C50.6664 17.552 49.8024 17.936 48.9064 18.256C48.7784 18.256 48.7144 18.1813 48.7144 18.032C48.7144 17.8613 48.8957 17.712 49.2584 17.584C49.6424 17.456 50.101 17.1893 50.6344 16.784C51.189 16.3787 51.5517 16.0587 51.7224 15.824C51.9144 15.5893 52.1384 15.472 52.3944 15.472C52.6504 15.472 52.7784 15.6107 52.7784 15.888Z" fill="black"/>
<path d="M60.5481 17.008C60.5481 16.816 60.4094 16.72 60.1321 16.72C59.8761 16.72 59.3534 17.008 58.5641 17.584C57.7748 18.1387 57.0601 18.704 56.4201 19.28L55.4921 20.112C55.4921 20.1547 55.5561 20.176 55.6841 20.176C55.8974 20.176 56.0361 20.3467 56.1001 20.688C56.1641 21.008 56.2814 21.168 56.4521 21.168C57.0068 21.168 57.8281 20.6027 58.9161 19.472C60.0041 18.3413 60.5481 17.52 60.5481 17.008ZM63.5881 20.688C63.7374 20.5813 63.8761 20.528 64.0041 20.528C64.1321 20.528 64.1961 20.6027 64.1961 20.752V20.816C62.5108 22.3093 60.8254 23.5893 59.1401 24.656C57.8814 25.5947 56.8574 26.064 56.0681 26.064C55.3001 26.064 54.7561 25.776 54.4361 25.2C54.1374 24.624 53.9881 24.0267 53.9881 23.408C53.9881 22.768 54.0521 22.3307 54.1801 22.096C54.3081 21.8613 54.3721 21.7227 54.3721 21.68C54.3721 21.616 54.3081 21.584 54.1801 21.584C53.9881 21.584 53.3268 22.32 52.1961 23.792C51.0654 25.264 50.4361 26 50.3081 26C50.1801 26 50.0521 25.968 49.9241 25.904C49.8174 25.8187 49.7641 25.712 49.7641 25.584C49.7641 25.456 49.9134 25.1467 50.2121 24.656C50.5321 24.1653 51.5454 22.7253 53.2521 20.336C54.9588 17.9467 55.8441 16.6987 55.9081 16.592C55.9721 16.464 56.0041 16.3787 56.0041 16.336C56.0041 16.2933 55.9614 16.272 55.8761 16.272C55.8121 16.272 55.7588 16.2933 55.7161 16.336C55.6734 16.3573 55.3534 16.5707 54.7561 16.976C53.4121 17.8933 52.4841 18.352 51.9721 18.352C51.4601 18.352 51.2041 18.1493 51.2041 17.744C51.2041 17.4027 51.3108 17.104 51.5241 16.848C51.7588 16.592 52.0148 16.464 52.2921 16.464C52.4201 16.464 52.5268 16.6133 52.6121 16.912C52.6974 17.1893 52.8361 17.328 53.0281 17.328C53.2201 17.328 53.4548 17.2533 53.7321 17.104C54.0094 16.9547 54.2868 16.7733 54.5641 16.56C54.8628 16.3467 55.1934 16.0907 55.5561 15.792C55.9401 15.472 56.2494 15.2053 56.4841 14.992C57.1881 14.352 57.6148 13.9573 57.7641 13.808C58.1694 13.1253 59.7054 11.1733 62.3721 7.952C62.6921 7.54667 63.0014 7.344 63.3001 7.344C63.6201 7.344 63.7801 7.41867 63.7801 7.568C63.7801 7.71734 63.7268 7.86667 63.6201 8.016C63.5134 8.144 62.7134 9.17867 61.2201 11.12C59.7268 13.04 58.2228 15.0133 56.7081 17.04C55.1934 19.0453 54.4361 20.112 54.4361 20.24C54.4361 20.368 54.4894 20.432 54.5961 20.432C54.9161 20.0907 55.3214 19.6747 55.8121 19.184C56.3241 18.672 57.1881 18 58.4041 17.168C59.6201 16.3147 60.5801 15.888 61.2841 15.888C62.0094 15.888 62.3721 16.08 62.3721 16.464C62.3721 17.168 61.5508 18.2133 59.9081 19.6C58.2654 20.9867 57.1241 21.68 56.4841 21.68L55.8761 21.552C55.6841 21.552 55.5241 21.7227 55.3961 22.064C55.2681 22.384 55.2041 22.7573 55.2041 23.184C55.2041 24.4853 55.6948 25.136 56.6761 25.136C57.1881 25.136 57.7641 24.9333 58.4041 24.528C59.7694 23.696 61.2308 22.6293 62.7881 21.328L63.5881 20.688Z" fill="black"/>
<path d="M73.3019 22.16C73.1739 22.16 73.1099 22.1173 73.1099 22.032C73.1099 21.9253 73.1845 21.808 73.3339 21.68C74.0379 21.104 74.3899 20.5813 74.3899 20.112C74.3899 19.8133 74.1232 19.6427 73.5899 19.6C72.6299 19.6213 71.4779 20.3147 70.1339 21.68C68.8112 23.0453 68.1499 24.0693 68.1499 24.752C68.1499 24.9867 68.2779 25.104 68.5339 25.104C68.8112 25.104 69.1739 24.9227 69.6219 24.56C70.0272 24.304 70.7845 23.664 71.8939 22.64C72.1499 22.384 72.3952 22.256 72.6299 22.256C72.9285 22.256 73.0779 22.3947 73.0779 22.672C73.0779 22.7787 73.0459 22.864 72.9819 22.928C72.9179 22.992 72.8005 23.1307 72.6299 23.344C72.4592 23.536 72.3099 23.7173 72.1819 23.888C71.7979 24.4427 71.6059 24.8053 71.6059 24.976C71.6059 25.4027 71.7765 25.616 72.1179 25.616C72.5659 25.616 73.4085 25.2107 74.6459 24.4C75.8832 23.568 77.0139 22.736 78.0379 21.904L79.5739 20.688C79.7232 20.5813 79.8619 20.528 79.9899 20.528C80.1179 20.528 80.1819 20.6027 80.1819 20.752V20.816C78.5392 22.2027 76.8005 23.504 74.9659 24.72C73.1525 25.936 71.9579 26.544 71.3819 26.544C70.6992 26.544 70.3579 26.1813 70.3579 25.456C70.3579 25.2853 70.3899 25.1253 70.4539 24.976C70.5179 24.8267 70.5499 24.72 70.5499 24.656C70.5499 24.592 70.5285 24.5493 70.4859 24.528C70.4219 24.528 70.0059 24.816 69.2379 25.392C68.4912 25.968 67.8299 26.256 67.2539 26.256C66.6992 26.256 66.4219 25.9573 66.4219 25.36C66.4219 24.7627 66.8165 23.9627 67.6059 22.96C68.4165 21.936 69.4939 21.008 70.8379 20.176C72.1819 19.344 73.4939 18.928 74.7739 18.928C75.0725 18.928 75.3179 19.0027 75.5099 19.152C75.7232 19.3013 75.8299 19.536 75.8299 19.856C75.8299 20.1547 75.5205 20.6133 74.9019 21.232C74.2832 21.8507 73.7499 22.16 73.3019 22.16Z" fill="black"/>
<path d="M101.878 10.064C101.878 10.1707 101.857 10.3733 101.814 10.672C102.433 10.1173 103.371 9.25334 104.63 8.08C105.91 6.88534 106.977 5.904 107.83 5.136C108.705 4.368 109.675 3.55734 110.742 2.704C112.897 0.954669 114.582 0.0800018 115.798 0.0800018C116.097 0.0800018 116.246 0.176002 116.246 0.368002C116.225 0.794669 116.033 1.17867 115.67 1.52C115.307 1.84 114.891 2.05334 114.422 2.16C113.974 2.24534 113.377 2.50134 112.63 2.928C111.883 3.33334 111.009 3.90934 110.006 4.656C109.025 5.40267 108.139 6.096 107.35 6.736C106.561 7.376 105.558 8.208 104.342 9.232C103.126 10.2347 102.23 10.9707 101.654 11.44C101.505 12.0587 100.875 14.0853 99.7659 17.52C98.6779 20.9547 98.1339 23.1413 98.1339 24.08C98.1339 25.2533 98.7099 25.84 99.8619 25.84C100.523 25.84 101.153 25.7227 101.75 25.488C102.369 25.232 102.849 24.976 103.19 24.72C103.553 24.464 103.766 24.336 103.83 24.336C103.894 24.336 103.926 24.3787 103.926 24.464C103.926 24.9547 103.307 25.4667 102.07 26C100.833 26.5333 99.8619 26.8 99.1579 26.8C97.6859 26.8 96.9499 26.032 96.9499 24.496C96.9499 23.0453 97.3552 21.072 98.1659 18.576C98.4432 17.7227 98.8165 16.6027 99.2859 15.216C99.7765 13.8293 100.075 12.9653 100.182 12.624C98.4965 13.9253 97.3445 14.576 96.7259 14.576C96.1072 14.576 95.7979 14.3413 95.7979 13.872C95.7979 13.1253 96.4699 12.144 97.8139 10.928C99.1579 9.712 100.278 9.104 101.174 9.104C101.643 9.104 101.878 9.424 101.878 10.064ZM83.7659 24.816C83.8725 24.6667 83.9792 24.5813 84.0859 24.56C84.2139 24.5173 84.3632 24.496 84.5339 24.496C84.7045 24.496 84.8112 24.5813 84.8539 24.752C84.8965 24.9013 84.9392 24.976 84.9819 24.976C85.9205 24.2933 87.2752 22.8 89.0459 20.496C90.8165 18.1707 92.4699 15.6213 94.0059 12.848C95.5419 10.0533 96.3099 7.94134 96.3099 6.512C96.2672 5.50934 95.9045 4.752 95.2219 4.24C94.6245 3.81334 93.0565 3.6 90.5179 3.6C88.0005 3.6 85.9952 3.856 84.5019 4.368C83.0299 4.85867 82.2939 5.50934 82.2939 6.32C82.2939 6.832 82.6565 7.248 83.3819 7.568C84.1285 7.86667 84.8752 8.06934 85.6219 8.176C85.9205 8.26134 86.3899 8.336 87.0299 8.4C87.6912 8.464 88.2885 8.53867 88.8219 8.624C89.3552 8.70934 89.8885 8.82667 90.4219 8.976C91.6165 9.33867 92.2139 10.0213 92.2139 11.024L92.0859 11.216C91.7232 10.7253 91.3819 10.4267 91.0619 10.32C90.7419 10.192 90.5179 10.1067 90.3899 10.064C90.2832 10.0213 90.0699 9.97867 89.7499 9.936C89.4299 9.872 89.1952 9.82934 89.0459 9.808C88.5979 9.744 87.9899 9.66934 87.2219 9.584C83.2965 9.09334 81.3339 8.12267 81.3339 6.672C81.3339 5.92534 81.7072 5.28534 82.4539 4.752C83.2219 4.21867 84.1925 3.83467 85.3659 3.6C87.4139 3.19467 89.4299 2.992 91.4139 2.992C93.7392 2.992 95.3499 3.26934 96.2459 3.824C96.6085 4.05867 96.9179 4.42134 97.1739 4.912C97.4512 5.38134 97.5899 5.94667 97.5899 6.608C97.5899 7.86667 96.5659 10.2133 94.5179 13.648C92.4699 17.0827 90.2725 20.2613 87.9259 23.184C85.6005 26.0853 84.0752 27.536 83.3499 27.536C82.9872 27.536 82.8059 27.3547 82.8059 26.992C82.8059 26.8427 82.8485 26.672 82.9339 26.48C83.0192 26.3093 83.1259 26.0747 83.2539 25.776C83.4032 25.456 83.4992 25.2533 83.5419 25.168C83.6059 25.0613 83.6805 24.944 83.7659 24.816ZM97.0459 13.776C97.7285 13.776 98.8485 13.136 100.406 11.856C100.555 11.408 100.63 11.056 100.63 10.8C100.63 10.352 100.438 10.128 100.054 10.128C99.5632 10.128 98.8805 10.576 98.0059 11.472C97.1312 12.368 96.6939 13.04 96.6939 13.488C96.6939 13.68 96.8112 13.776 97.0459 13.776Z" fill="black"/>
<path d="M110.72 23.248C111.915 23.248 113.344 22.576 115.008 21.232L115.552 21.392C113.461 23.1413 111.659 24.016 110.144 24.016C109.973 24.016 109.845 24.0053 109.76 23.984C109.184 24.688 108.555 25.264 107.872 25.712C107.189 26.1387 106.592 26.352 106.08 26.352C105.269 26.352 104.864 25.904 104.864 25.008C104.864 24.0907 105.621 22.8747 107.136 21.36C106.88 20.7413 106.752 20.0907 106.752 19.408C106.752 18.7253 106.997 18.1707 107.488 17.744C107.979 17.3173 108.544 17.104 109.184 17.104C109.845 17.104 110.4 17.3173 110.848 17.744C111.296 18.1707 111.52 18.7787 111.52 19.568C111.52 20.784 111.125 22 110.336 23.216C110.421 23.2373 110.549 23.248 110.72 23.248ZM109.696 22.928C110.357 21.8187 110.688 20.88 110.688 20.112C110.688 19.3227 110.496 18.7467 110.112 18.384C109.728 18 109.355 17.808 108.992 17.808C108.245 17.808 107.872 18.192 107.872 18.96C107.872 19.728 108.043 20.496 108.384 21.264C108.725 22.0107 109.163 22.5653 109.696 22.928ZM106.176 24.816C106.176 25.2427 106.453 25.456 107.008 25.456C107.563 25.456 108.267 24.8907 109.12 23.76C108.544 23.4613 108.032 22.9387 107.584 22.192C106.645 23.216 106.176 24.0907 106.176 24.816Z" fill="black"/>
<path d="M128.654 20.784C124.153 24.5387 121.369 26.416 120.302 26.416C119.683 26.416 119.374 26.16 119.374 25.648C119.374 25.136 119.598 24.528 120.046 23.824C120.515 23.12 120.974 22.5013 121.422 21.968C121.891 21.4133 122.126 21.0827 122.126 20.976C122.126 20.8693 122.094 20.816 122.03 20.816C120.046 22.1387 118.862 22.9493 118.478 23.248C118.115 23.5467 117.507 24.0373 116.654 24.72C115.822 25.4027 115.278 25.8293 115.022 26C114.766 26.1707 114.489 26.256 114.19 26.256C113.891 26.256 113.742 26.128 113.742 25.872C113.742 25.5733 114.339 24.6347 115.534 23.056C116.686 21.4773 117.262 20.592 117.262 20.4C117.262 20.3573 117.219 20.336 117.134 20.336C117.07 20.336 116.153 20.9867 114.382 22.288L114.254 21.808C115.769 20.592 116.793 19.8133 117.326 19.472C117.859 19.1307 118.286 18.96 118.606 18.96C118.947 18.96 119.118 19.12 119.118 19.44C119.118 19.6533 118.51 20.528 117.294 22.064C116.099 23.5787 115.502 24.4 115.502 24.528C115.502 24.6347 115.534 24.688 115.598 24.688C115.683 24.688 116.899 23.8347 119.246 22.128C121.614 20.4 123.054 19.536 123.566 19.536C123.715 19.536 123.854 19.6 123.982 19.728C124.131 19.8347 124.206 19.9413 124.206 20.048C124.206 20.304 123.641 21.1573 122.51 22.608C121.379 24.0373 120.814 24.848 120.814 25.04C120.814 25.232 120.942 25.328 121.198 25.328C121.475 25.328 122.051 25.04 122.926 24.464C124.526 23.4187 125.998 22.3413 127.342 21.232L128.046 20.656C128.195 20.5493 128.334 20.496 128.462 20.496C128.59 20.496 128.654 20.56 128.654 20.688V20.784Z" fill="black"/>
<path d="M121.798 29.552C122.033 29.6587 122.235 29.7653 122.406 29.872C122.534 29.616 122.683 29.4027 122.854 29.232C122.406 29.36 122.065 29.4453 121.83 29.488C121.83 29.5093 121.819 29.5307 121.798 29.552ZM131.43 16.336C131.643 16.336 131.803 16.4 131.91 16.528C132.038 16.656 132.102 16.8373 132.102 17.072C132.102 17.3067 131.942 17.6053 131.622 17.968C131.302 18.3307 131.025 18.512 130.79 18.512C130.555 18.512 130.385 18.448 130.278 18.32C130.171 18.1707 130.118 18.0107 130.118 17.84C130.118 17.648 130.289 17.3493 130.63 16.944C130.971 16.5387 131.238 16.336 131.43 16.336ZM122.694 32.24C122.694 31.9413 122.662 31.664 122.598 31.408C119.249 35.952 117.574 38.4373 117.574 38.864C117.574 39.056 117.659 39.152 117.83 39.152C118.257 39.152 118.865 38.7787 119.654 38.032C120.422 37.3067 121.126 36.3787 121.766 35.248C122.385 34.1387 122.694 33.136 122.694 32.24ZM121.99 30.448C121.457 29.9147 120.742 29.648 119.846 29.648C119.569 29.6053 119.43 29.488 119.43 29.296C119.451 29.1253 119.579 29.04 119.814 29.04C119.857 29.04 120.198 29.072 120.838 29.136C121.393 29.136 122.214 28.9547 123.302 28.592L128.646 21.136C128.689 21.072 128.71 21.008 128.71 20.944C128.71 20.8587 128.678 20.816 128.614 20.816C128.55 20.816 128.486 20.848 128.422 20.912L126.758 22.288L126.63 21.808L128.262 20.432C129.03 19.664 129.563 19.28 129.862 19.28C129.969 19.28 130.075 19.3333 130.182 19.44C130.289 19.5253 130.342 19.6533 130.342 19.824C130.342 20.4427 128.667 23.056 125.318 27.664C126.171 27.1947 126.779 26.7147 127.142 26.224C127.227 26.1173 127.334 26.064 127.462 26.064C127.59 26.064 127.654 26.1387 127.654 26.288C127.654 26.992 126.662 27.7493 124.678 28.56L123.206 30.576C123.59 31.0453 123.782 31.7173 123.782 32.592C123.782 33.4667 123.345 34.5333 122.47 35.792C121.595 37.072 120.614 38.128 119.526 38.96C118.438 39.792 117.585 40.208 116.966 40.208C116.347 40.208 116.038 39.9307 116.038 39.376C116.038 38.9707 118.022 35.9947 121.99 30.448Z" fill="black"/>
<path d="M137.239 22.16C137.111 22.16 137.047 22.1173 137.047 22.032C137.047 21.9253 137.122 21.808 137.271 21.68C137.975 21.104 138.327 20.5813 138.327 20.112C138.327 19.8133 138.061 19.6427 137.527 19.6C136.567 19.6213 135.415 20.3147 134.071 21.68C132.749 23.0453 132.087 24.0693 132.087 24.752C132.087 24.9867 132.215 25.104 132.471 25.104C132.749 25.104 133.111 24.9227 133.559 24.56C133.965 24.304 134.722 23.664 135.831 22.64C136.087 22.384 136.333 22.256 136.567 22.256C136.866 22.256 137.015 22.3947 137.015 22.672C137.015 22.7787 136.983 22.864 136.919 22.928C136.855 22.992 136.738 23.1307 136.567 23.344C136.397 23.536 136.247 23.7173 136.119 23.888C135.735 24.4427 135.543 24.8053 135.543 24.976C135.543 25.4027 135.714 25.616 136.055 25.616C136.503 25.616 137.346 25.2107 138.583 24.4C139.821 23.568 140.951 22.736 141.975 21.904L143.511 20.688C143.661 20.5813 143.799 20.528 143.927 20.528C144.055 20.528 144.119 20.6027 144.119 20.752V20.816C142.477 22.2027 140.738 23.504 138.903 24.72C137.09 25.936 135.895 26.544 135.319 26.544C134.637 26.544 134.295 26.1813 134.295 25.456C134.295 25.2853 134.327 25.1253 134.391 24.976C134.455 24.8267 134.487 24.72 134.487 24.656C134.487 24.592 134.466 24.5493 134.423 24.528C134.359 24.528 133.943 24.816 133.175 25.392C132.429 25.968 131.767 26.256 131.191 26.256C130.637 26.256 130.359 25.9573 130.359 25.36C130.359 24.7627 130.754 23.9627 131.543 22.96C132.354 21.936 133.431 21.008 134.775 20.176C136.119 19.344 137.431 18.928 138.711 18.928C139.01 18.928 139.255 19.0027 139.447 19.152C139.661 19.3013 139.767 19.536 139.767 19.856C139.767 20.1547 139.458 20.6133 138.839 21.232C138.221 21.8507 137.687 22.16 137.239 22.16Z" fill="black"/>
<path d="M160.785 12.432L156.209 12.208C154.332 12.208 152.465 12.2827 150.609 12.432L150.769 13.072C150.769 13.3067 150.076 14.2027 148.689 15.76C147.302 17.296 145.916 18.9813 144.529 20.816C143.142 22.6293 142.449 23.9733 142.449 24.848C142.449 25.1893 142.566 25.36 142.801 25.36C143.057 25.36 143.622 25.0613 144.497 24.464C146.118 23.3973 147.601 22.32 148.945 21.232L149.649 20.656C149.798 20.5493 149.926 20.496 150.033 20.496C150.14 20.496 150.193 20.56 150.193 20.688V20.784C150.278 20.784 149.702 21.2533 148.465 22.192C147.249 23.1307 145.937 24.0693 144.529 25.008C143.142 25.9467 142.268 26.416 141.905 26.416C141.286 26.416 140.977 26.1387 140.977 25.584C140.977 24.7733 141.425 23.6533 142.321 22.224C143.238 20.7947 144.23 19.4507 145.297 18.192C146.385 16.912 147.409 15.7067 148.369 14.576C149.35 13.4453 149.884 12.752 149.969 12.496C147.622 12.7093 145.82 12.9653 144.561 13.264L143.921 13.392C143.75 13.4133 143.665 13.5733 143.665 13.872C143.665 14 143.516 14.064 143.217 14.064C142.918 14.064 142.545 14 142.097 13.872C141.67 13.7227 141.457 13.52 141.457 13.264C141.457 13.008 141.67 12.8373 142.097 12.752C145.254 12.1973 147.494 11.8667 148.817 11.76C150.14 11.632 151.014 11.5573 151.441 11.536C151.889 11.4933 152.572 11.4613 153.489 11.44C154.428 11.4187 155.057 11.408 155.377 11.408C156.337 11.3653 157.457 11.344 158.737 11.344C160.038 11.344 160.828 11.3973 161.105 11.504C161.382 11.6107 161.521 11.8133 161.521 12.112C161.521 12.3253 161.276 12.432 160.785 12.432Z" fill="black"/>
<path d="M152.896 22.16C152.768 22.16 152.704 22.1173 152.704 22.032C152.704 21.9253 152.778 21.808 152.928 21.68C153.632 21.104 153.984 20.5813 153.984 20.112C153.984 19.8133 153.717 19.6427 153.184 19.6C152.224 19.6213 151.072 20.3147 149.728 21.68C148.405 23.0453 147.744 24.0693 147.744 24.752C147.744 24.9867 147.872 25.104 148.128 25.104C148.405 25.104 148.768 24.9227 149.216 24.56C149.621 24.304 150.378 23.664 151.488 22.64C151.744 22.384 151.989 22.256 152.224 22.256C152.522 22.256 152.672 22.3947 152.672 22.672C152.672 22.7787 152.64 22.864 152.576 22.928C152.512 22.992 152.394 23.1307 152.224 23.344C152.053 23.536 151.904 23.7173 151.776 23.888C151.392 24.4427 151.2 24.8053 151.2 24.976C151.2 25.4027 151.37 25.616 151.712 25.616C152.16 25.616 153.002 25.2107 154.24 24.4C155.477 23.568 156.608 22.736 157.632 21.904L159.168 20.688C159.317 20.5813 159.456 20.528 159.584 20.528C159.712 20.528 159.776 20.6027 159.776 20.752V20.816C158.133 22.2027 156.394 23.504 154.56 24.72C152.746 25.936 151.552 26.544 150.976 26.544C150.293 26.544 149.952 26.1813 149.952 25.456C149.952 25.2853 149.984 25.1253 150.048 24.976C150.112 24.8267 150.144 24.72 150.144 24.656C150.144 24.592 150.122 24.5493 150.08 24.528C150.016 24.528 149.6 24.816 148.832 25.392C148.085 25.968 147.424 26.256 146.848 26.256C146.293 26.256 146.016 25.9573 146.016 25.36C146.016 24.7627 146.41 23.9627 147.2 22.96C148.01 21.936 149.088 21.008 150.432 20.176C151.776 19.344 153.088 18.928 154.368 18.928C154.666 18.928 154.912 19.0027 155.104 19.152C155.317 19.3013 155.424 19.536 155.424 19.856C155.424 20.1547 155.114 20.6133 154.496 21.232C153.877 21.8507 153.344 22.16 152.896 22.16Z" fill="black"/>
</svg>
